<svg xmlns="http://www.w3.org/2000/svg" viewBox="0 0 24 24" fill="currentColor" width="24px" height="24px">
    <path d="M0 0h24v24H0z" fill="none"/>
    <path d="M12 2C6.48 2 2 6.48 2 12s4.48 10 10 10 10-4.48 10-10S17.52 2 12 2zm-2 15V9h4v8h-4zm6-10.5c.83 0 1.5.67 1.5 1.5s-.67 1.5-1.5 1.5S14.5 7.83 14.5 7c0-.83.67-1.5 1.5-1.5zM7.5 7C8.33 7 9 6.33 9 5.5S8.33 4 7.5 4 6 4.67 6 5.5 6.67 7 7.5 7zm5.5 2c-.55 0-1 .45-1 1v1H8v-1c0-.55-.45-1-1-1s-1 .45-1 1v2c0 .55.45 1 1 1h1v1c0 .55.45 1 1 1h4c.55 0 1-.45 1-1v-1h1c.55 0 1-.45 1-1V10c0-.55-.45-1-1-1s-1 .45-1 1v1h-1V10c0-.55-.45-1-1-1zM12 20c-4.41 0-8-3.59-8-8s3.59-8 8-8 8 3.59 8 8-3.59 8-8 8z"/>
    <path d="M17 6.5c.83 0 1.5.67 1.5 1.5S17.83 9.5 17 9.5s-1.5-.67-1.5-1.5S16.17 6.5 17 6.5m0-1.5C15.34 5 14 6.34 14 8s1.34 3 3 3 3-1.34 3-3-1.34-3-3-3zM7 8c0-1.66-1.34-3-3-3S1 6.34 1 8s1.34 3 3 3 3-1.34 3-3zm-1.5.5h-1v-1h1v1zM12 12c-2.21 0-4-1.79-4-4s1.79-4 4-4 4 1.79 4 4-1.79 4-4 4zm0-6c-1.1 0-2 .9-2 2s.9 2 2 2 2-.9 2-2-.9-2-2-2z"/>
    <path d="M21.99 11c-.05-.55-.16-1.08-.33-1.59l-1.1-3.3C20.21 5.27 19.36 5 18.5 5h-1c-.55 0-1 .45-1 1s.45 1 1 1h1l.7 2.1c.13.39.19.8.19 1.21C19.39 12.06 17.4 14 15 14v-2c1.38 0 2.5-1.12 2.5-2.5S16.38 7 15 7H9c-1.38 0-2.5 1.12-2.5 2.5S7.62 12 9 12v2c-2.4 0-4.39-1.94-4.49-4.39 0-.41.06-.82.19-1.21L5.5 7h1c.55 0 1-.45 1-1s-.45-1-1-1h-1c-.86 0-1.71.27-2.07.91l-1.1 3.3C2.16 9.92 2.05 10.45 2.01 11H2v8c0 .55.45 1 1 1h18c.55 0 1-.45 1-1v-8h-.01zM4 13h16v4H4v-4z"/>
</svg>
